<svg width="24" height="24"><path d="M18 15c.6.7 1 1.4 1 2.3 0 .8-.2 1.5-.7 2l-.8.5-1 .2c-.4 0-.8 0-1.2-.3a3.9 3.9 0 01-2.1-2.2c-.2-.5-.3-1-.2-1.5l-1-1-1 1c0 .5 0 1-.2 1.5-.1.5-.4 1-.9 1.4-.3.4-.7.6-1.2.8l-1.2.3c-.4 0-.7 0-1-.2-.3 0-.6-.3-.8-.5-.5-.5-.8-1.2-.7-2 0-.9.4-1.6 1-2.2A3.7 3.7 0 018.6 14H9l1-1-4-4-.5-1a3.3 3.3 0 010-2c0-.4.3-.7.5-1l6 6 6-6 .5 1a3.3 3.3 0 010 2c0 .4-.3.7-.5 1l-4 4 1 1h.5c.4 0 .8 0 1.2.3.5.2.9.4 1.2.8zm-8.5 2.2l.1-.4v-.3-.4a1 1 0 00-.2-.5 1 1 0 00-.4-.2 1.6 1.6 0 00-.8 0 2.6 2.6 0 00-.8.3 2.5 2.5 0 00-.9 1.1l-.1.4v.7l.2.5.5.2h.7a2.5 2.5 0 00.8-.3 2.8 2.8 0 001-1zm2.5-2.8c.4 0 .7-.1 1-.4.3-.3.4-.6.4-1s-.1-.7-.4-1c-.3-.3-.6-.4-1-.4s-.7.1-1 .4c-.3.3-.4.6-.4 1s.1.7.4 1c.3.3.6.4 1 .4zm5.4 4l.2-.5v-.4-.3a2.6 2.6 0 00-.3-.8 2.4 2.4 0 00-.7-.7 2.5 2.5 0 00-.8-.3 1.5 1.5 0 00-.8 0 1 1 0 00-.4.2 1 1 0 00-.2.5 1.5 1.5 0 000 .7v.4l.3.4.3.4a2.8 2.8 0 00.8.5l.4.1h.7l.5-.2z" fill-rule="evenodd"></path></svg>