<svg xmlns="http://www.w3.org/2000/svg" xmlns:xlink="http://www.w3.org/1999/xlink" width="542" height="120" viewBox="0 0 542 120">
  <defs>
    <filter id="Path_1" x="0" y="0" width="100.786" height="120" filterUnits="userSpaceOnUse">
      <feOffset dy="2" input="SourceAlpha"/>
      <feGaussianBlur stdDeviation="2.5" result="blur"/>
      <feFlood flood-opacity="0.361"/>
      <feComposite operator="in" in2="blur"/>
      <feComposite in="SourceGraphic"/>
    </filter>
    <filter id="PHONE-MELA" x="98" y="21" width="444" height="92" filterUnits="userSpaceOnUse">
      <feOffset dx="1" dy="2" input="SourceAlpha"/>
      <feGaussianBlur stdDeviation="2.5" result="blur-2"/>
      <feFlood flood-color="#4b4b4b" flood-opacity="0.671"/>
      <feComposite operator="in" in2="blur-2"/>
      <feComposite in="SourceGraphic"/>
    </filter>
  </defs>
  <g id="Group_5" data-name="Group 5" transform="translate(-264.5 -239.5)">
    <g id="Group_4" data-name="Group 4" transform="translate(272 245)">
      <g transform="matrix(1, 0, 0, 1, -7.5, -5.5)" filter="url(#Path_1)">
        <path id="Path_1-2" data-name="Path 1" d="M64.678,40.322V36.8l4.871-2.977a4.612,4.612,0,0,1,3.789,0,4.127,4.127,0,0,1,1.894,3.247V61.431a31.906,31.906,0,0,1-1.894,11.1c-4.33,12.448-16.237,21.92-30.309,21.92A32.373,32.373,0,0,1,27.6,33.557L53.853,18.4v43.57a10.961,10.961,0,1,1-21.92,0A10.915,10.915,0,0,1,37.345,52.5l11.1-6.495V33.827l-15.7,8.93A22.451,22.451,0,0,0,21.108,61.972a21.785,21.785,0,0,0,43.57,0V40.322Zm0-15.7V0L23.544,23.544A43.068,43.068,0,0,0,43.028,105a43.264,43.264,0,0,0,41.4-31.662,54.322,54.322,0,0,0,1.353-11.366V36.8A13.354,13.354,0,0,0,78.75,24.626a13.211,13.211,0,0,0-14.072,0Z" transform="translate(7.5 5.5)" fill="#fff" fill-rule="evenodd"/>
      </g>
    </g>
    <g transform="matrix(1, 0, 0, 1, 264.5, 239.5)" filter="url(#PHONE-MELA)">
      <text id="PHONE-MELA-2" data-name="PHONE-MELA" transform="translate(104.5 87.5)" fill="#fff" font-size="65" font-family="Rubik-Medium, Rubik" font-weight="500"><tspan x="0" y="0">PHONE-MELA</tspan></text>
    </g>
  </g>
</svg>
