<svg xmlns="http://www.w3.org/2000/svg" xmlns:xlink="http://www.w3.org/1999/xlink" width="100.786" height="120" viewBox="0 0 100.786 120">
  <defs>
    <filter id="Path_2" x="0" y="0" width="100.786" height="120" filterUnits="userSpaceOnUse">
      <feOffset dy="2" input="SourceAlpha"/>
      <feGaussianBlur stdDeviation="2.5" result="blur"/>
      <feFlood flood-color="#636363"/>
      <feComposite operator="in" in2="blur"/>
      <feComposite in="SourceGraphic"/>
    </filter>
  </defs>
  <g transform="matrix(1, 0, 0, 1, 0, 0)" filter="url(#Path_2)">
    <path id="Path_2-2" data-name="Path 2" d="M64.678,40.322V36.8l4.871-2.977a4.612,4.612,0,0,1,3.789,0,4.127,4.127,0,0,1,1.894,3.247V61.431a31.906,31.906,0,0,1-1.894,11.1c-4.33,12.448-16.237,21.92-30.309,21.92A32.373,32.373,0,0,1,27.6,33.557L53.853,18.4v43.57a10.961,10.961,0,1,1-21.92,0A10.915,10.915,0,0,1,37.345,52.5l11.1-6.495V33.827l-15.7,8.93A22.451,22.451,0,0,0,21.108,61.972a21.785,21.785,0,0,0,43.57,0V40.322Zm0-15.7V0L23.544,23.544A43.068,43.068,0,0,0,43.028,105a43.264,43.264,0,0,0,41.4-31.662,54.322,54.322,0,0,0,1.353-11.366V36.8A13.354,13.354,0,0,0,78.75,24.626a13.211,13.211,0,0,0-14.072,0Z" transform="translate(7.5 5.5)" fill="#1c1c1c" fill-rule="evenodd"/>
  </g>
</svg>
